<svg xmlns="http://www.w3.org/2000/svg" viewBox="0 0 570 570"><defs><style>.cls-1{fill:#32d74b;}</style></defs><g id="Layer_2" data-name="Layer 2"><path class="cls-1" d="M420.61,187.67,312.39,126.21c-18.52-10.56-36.41-10.56-54.9,0l-108.1,61.46c-13,7.48-18.79,17.27-18.79,33.16V341.94c0,21.85,7.49,29.79,21.38,37.9L272.31,448c8.56,4.89,16.67,4.89,25.38,0l120.18-68.2c14.08-8.11,21.41-16,21.41-37.9V220.83C439.28,204.94,433.47,195.15,420.61,187.67ZM415.31,342c0,11.43-1.23,12.11-9.13,16.68L286.11,426.76a5.63,5.63,0,0,1-.62.3l-.51-.27L164.55,358.54c-7.57-4.42-9-5.22-9-16.59V220.81c0-7.37,1.31-8.92,6.53-11.93l108-61.42c5.58-3.16,10.59-4.71,15.34-4.71s9.78,1.55,15.3,4.71l108.34,61.48c4.93,2.89,6.24,4.47,6.24,11.87Z"/><path class="cls-1" d="M342.94,270.47H295.43V223a13.53,13.53,0,0,0-13.4-13.4A13.69,13.69,0,0,0,268.46,223v47.51H221a13.52,13.52,0,0,0-13.4,13.4A13.68,13.68,0,0,0,221,297.44h47.51V345a13.52,13.52,0,0,0,13.4,13.4A13.68,13.68,0,0,0,295.43,345V297.44h47.51a13.52,13.52,0,0,0,13.4-13.39A13.68,13.68,0,0,0,342.94,270.47Z"/><path class="cls-1" d="M285,570C127.85,570,0,442.15,0,285S127.85,0,285,0,570,127.85,570,285,442.15,570,285,570Zm0-537.17C146,32.83,32.83,146,32.83,285S146,537.17,285,537.17,537.17,424.05,537.17,285,424.05,32.83,285,32.83Z"/></g></svg>