<svg xmlns="http://www.w3.org/2000/svg" viewBox="0 0 570 570"><defs><style>.cls-1{fill:#58D68D;}</style></defs><g id="Layer_2" data-name="Layer 2"><path class="cls-1" d="M285,570C127.85,570,0,442.15,0,285S127.85,0,285,0,570,127.85,570,285,442.15,570,285,570Zm0-537.17C146,32.83,32.83,146,32.83,285S146,537.17,285,537.17,537.17,424.05,537.17,285,424.05,32.83,285,32.83Z"/><path class="cls-1" d="M130.54,346.23V225.05c0-15.91,5.82-25.7,18.82-33.2l108.18-61.51c18.51-10.55,36.41-10.55,54.92,0l108.33,61.51c12.85,7.5,18.67,17.29,18.67,33.2V346.23c0,21.88-7.35,29.84-21.42,37.95L297.78,452.42c-8.73,4.89-16.83,4.89-25.4,0L152,384.18C138,376.07,130.54,368.11,130.54,346.23ZM273,425V298L153.8,230V345.47c0,8.41,3.06,13.46,11.93,18.51Zm59.36-175.19L214.24,182.67,167,209.75l118.12,66.87Zm70.85-40.09L302.37,152.22c-11.94-6.88-22.8-6.73-34.58,0L238.41,168.9l118.58,67Zm13,135.72V230L297,298V425l107.41-61C413.14,358.93,416.2,353.88,416.2,345.47Z"/></g></svg>