<svg xmlns="http://www.w3.org/2000/svg" viewBox="0 0 292 144"><defs><style>.cls-1{fill:#F2F3F4;}</style></defs><g id="Layer_2" data-name="Layer 2"><path class="cls-1" d="M259.57,75.43l-34.1,34a4.67,4.67,0,0,1-3.33,1.43,4.32,4.32,0,0,1-4.46-4.41,4.45,4.45,0,0,1,1.23-3.23l11.48-11.69,17.28-15.74-12.41.77H26.41a4.56,4.56,0,0,1,0-9.12H235.26l12.36.77L230.39,52.47,218.91,40.78a4.53,4.53,0,0,1-1.23-3.23,4.32,4.32,0,0,1,4.46-4.41,4.56,4.56,0,0,1,3.43,1.54l34,33.88a4.62,4.62,0,0,1,0,6.87Z"/><path class="cls-1" d="M261.42,144H30.58A30.62,30.62,0,0,1,0,113.42V30.58A30.62,30.62,0,0,1,30.58,0H261.42A30.62,30.62,0,0,1,292,30.58v82.84A30.62,30.62,0,0,1,261.42,144ZM30.58,8A22.61,22.61,0,0,0,8,30.58v82.84A22.61,22.61,0,0,0,30.58,136H261.42A22.61,22.61,0,0,0,284,113.42V30.58A22.61,22.61,0,0,0,261.42,8Z"/></g></svg>