<svg xmlns="http://www.w3.org/2000/svg" viewBox="0 0 1244 570"><defs><style>.cls-1{fill:#F2F3F4;}.cls-2{fill:#3498DB;}</style></defs><g id="Layer_2" data-name="Layer 2"><path class="cls-1" d="M160,376.75V216.55c0-31.52,16.08-47.28,48.08-47.28h34.76c12,0,15.77-2.6,22.51-10.09l12.25-13.77c7.66-8.42,15.47-13,31.24-13h61.09c15.78,0,23.59,4.59,31.24,13l12.4,13.77c6.74,7.65,10.57,10.09,22.51,10.09h35.68q48,0,48.08,47.28v160.2c0,31.52-16.07,47.43-48.08,47.43H208.06C176.06,424.18,160,408.27,160,376.75Zm311.46,22.8c15.16,0,23.73-8.12,23.73-24V217.93c0-15.91-8.57-24-23.73-24h-41.5c-13.78,0-21.29-2.6-28.79-11.17l-12.09-13.47c-8.73-9.79-13.17-12.24-26.8-12.24H316.47c-13.47,0-17.91,2.45-26.79,12.24l-11.95,13.47c-7.65,8.57-15,11.17-28.78,11.17H208.37c-15,0-23.74,8.11-23.74,24V375.52c0,15.91,8.73,24,23.74,24Zm-215-108a83.53,83.53,0,1,1,83.45,83.7A83.29,83.29,0,0,1,256.45,291.52Zm143.94,0A60.41,60.41,0,1,0,339.9,352,60.4,60.4,0,0,0,400.39,291.52ZM431,235.37a19,19,0,1,1,19,18.82A19,19,0,0,1,431,235.37Z"/><path class="cls-2" d="M684.29,141.12a11.85,11.85,0,0,1,16.84-16.67l302.42,302a12,12,0,0,1,0,16.68,11.84,11.84,0,0,1-16.69,0Zm19.6,209V187.63l24.65,25V346.45c0,26.62,14.24,39.63,39.35,39.63H903.41l23,22.95H763.61C726.24,409,703.89,387.3,703.89,350.13ZM983.34,216.55v21l57.88-49c6.12-5.05,12.86-8.56,19.14-8.56,13.47,0,22.36,9.94,22.36,24.17V362.37c0,14.22-8.89,24.17-22.36,24.17-6.28,0-13-3.52-19.14-8.57l-57.88-49v23.1a62.93,62.93,0,0,1-4.6,23.72l-21.43-21.27a29.16,29.16,0,0,0,1.38-9.33V220.07c0-26.47-14.4-39.47-39.36-39.47H783.21l-23-23.11H923.62C961,157.49,983.34,179.22,983.34,216.55Zm73,142.45c1.84,0,2.6-1.53,2.6-3.67V211.2c0-2.15-.76-3.52-2.6-3.52-1.38,0-2.3.61-3.68,1.68l-69.36,57.22v33.36l69.36,57.22C1054.08,358.08,1055,359,1056.38,359Z"/><path class="cls-2" d="M1091.56,32.83A283.58,283.58,0,0,0,958.77,0H285.23A283.58,283.58,0,0,0,152.44,32.83C61.85,80.64,0,175.72,0,285S61.85,489.36,152.44,537.17A283.58,283.58,0,0,0,285.23,570H958.77a283.58,283.58,0,0,0,132.79-32.83C1182.15,489.36,1244,394.29,1244,285S1182.15,80.64,1091.56,32.83ZM958.77,537.17H285.23C146.08,537.17,32.85,424,32.85,285S146.08,32.83,285.23,32.83H958.77c139.15,0,252.38,113.13,252.38,252.17S1097.92,537.17,958.77,537.17Z"/></g></svg>