<svg xmlns="http://www.w3.org/2000/svg" viewBox="0 0 570 570"><defs><style>.cls-1{fill:#E74C3C;}</style></defs><g id="Layer_2" data-name="Layer 2"><path class="cls-1" d="M285,570.29C127.69,570.29-.29,442.31-.29,285S127.69-.29,285-.29,570.29,127.69,570.29,285,442.31,570.29,285,570.29Zm0-537.72C145.81,32.57,32.57,145.81,32.57,285S145.81,537.43,285,537.43,537.43,424.19,537.43,285,424.19,32.57,285,32.57Z"/><path class="cls-1" d="M99.68,304.56C99.68,233.33,179.47,198,285,198c105.68,0,185.33,35.38,185.33,106.61v12.55c0,18.08-10.88,33.09-30,33.09A101.71,101.71,0,0,1,423,348.51l-54.22-8.12c-22.36-3.21-28.49-12.4-28.49-31.55,0-5.82,0-11.33-.15-17.15,0-4.75-2.15-6.74-5.67-7.66-22.51-5-76.43-5-98.94,0-3.52.92-5.67,2.91-5.67,7.66-.15,5.82-.15,11.33-.15,17.15,0,19.15-6.13,28.34-28.49,31.55L147,348.51a101.7,101.7,0,0,1-17.3,1.69c-19.15,0-30-15-30-33.09Zm36.14,23a48.87,48.87,0,0,0,8.73-1.07L196,316.81c5.06-1.07,8.89-3.68,8.89-11.18V286.48c0-15.16,5.51-21.29,13.47-23.58,24.66-7,108.6-7,133.25,0,8,2.29,13.48,8.42,13.48,23.58v19.15c0,7.5,3.83,10.11,8.89,11.18l51.46,9.65a50.54,50.54,0,0,0,8.73,1.07c7.81,0,11.33-6.59,11.33-14.09v-7.66c0-61.57-79.18-84.7-160.51-84.7s-160.51,23.13-160.51,84.7v7.66C124.49,320.94,128,327.53,135.82,327.53Z"/></g></svg>