<svg id="Layer_1" data-name="Layer 1" xmlns="http://www.w3.org/2000/svg" viewBox="0 0 2005.71 2316.06"><defs><style>.cls-1,.cls-2{fill:#F2F3F4;}.cls-2{opacity:0.4;}</style></defs><polygon class="cls-1" points="312.5 1917.53 0 1737.04 0 1382.1 67.16 1382.1 67.16 1698.28 346.07 1859.38 312.5 1917.53"/><polygon class="cls-1" points="67.16 933.96 0 933.96 0 579.02 312.5 398.53 346.07 456.68 67.16 617.78 67.16 933.96"/><polygon class="cls-1" points="728.86 235.73 695.28 177.58 1002.86 0 1310.43 177.58 1276.85 235.73 1002.86 77.54 728.86 235.73"/><polygon class="cls-1" points="1002.86 2316.06 695.28 2138.47 728.86 2080.32 1002.86 2238.52 1276.85 2080.32 1310.43 2138.47 1002.86 2316.06"/><polygon class="cls-1" points="2005.71 933.96 1938.56 933.96 1938.56 617.78 1659.64 456.68 1693.22 398.53 2005.71 579.02 2005.71 933.96"/><polygon class="cls-1" points="1693.22 1917.53 1659.64 1859.38 1938.56 1698.28 1938.56 1382.1 2005.71 1382.1 2005.71 1737.04 1693.22 1917.53"/><rect class="cls-1" x="969.28" y="1941.51" width="67.16" height="335.78"/><rect class="cls-1" x="969.28" y="38.77" width="67.16" height="335.78"/><rect class="cls-1" x="147.86" y="513.05" width="67.15" height="341.49" transform="translate(-501.44 498.9) rotate(-59.99)"/><rect class="cls-1" x="1790.71" y="1461.52" width="67.15" height="341.49" transform="translate(-501.57 2395.59) rotate(-59.99)"/><rect class="cls-1" x="10.69" y="1598.69" width="341.49" height="67.15" transform="translate(-791.91 309.47) rotate(-30)"/><rect class="cls-2" x="969.28" y="374.55" width="67.16" height="508.37"/><rect class="cls-2" x="1525.22" y="1343.07" width="67.15" height="271.7" transform="translate(-501.48 2089.09) rotate(-59.99)"/><rect class="cls-2" x="309.73" y="1439.75" width="296.09" height="67.15" transform="translate(-671.42 422.06) rotate(-29.79)"/><rect class="cls-1" x="1649.56" y="654.37" width="347.43" height="67.14" transform="translate(-93.74 1038.14) rotate(-31.02)"/><path class="cls-1" d="M1476.19,1470.09,1259.47,1345v119.36H554.12V846.94h705.35V958l216.72-125.13Zm-854.92-72.92h571V1228.64L1409,1353.77V949.15l-216.73,125.13V914.09h-571Z"/></svg>