<svg xmlns="http://www.w3.org/2000/svg" viewBox="0 0 800 600"><defs><style>.cls-1{fill:#3498DB;}.cls-2,.cls-3,.cls-4{fill:none;stroke:#383838;stroke-miterlimit:10;}.cls-5{fill:none;stroke:#E74C3C;stroke-miterlimit:10;}.cls-2,.cls-3,.cls-4{stroke-linecap:square;stroke-width:9px;}.cls-3{stroke-dasharray:18.96 23.7;}.cls-4{stroke-dasharray:21.25 26.56;}.cls-5{stroke-linecap:round;stroke-width:8px;}</style></defs><g id="Layer_2" data-name="Layer 2"><path class="cls-1" d="M455.37,281.13c-2.92,0-4.51-1.69-4.51-4.61v-16.2c0-7.39-3.9-11.18-11.07-11.18H423.28c-2.93,0-4.62-1.64-4.62-4.51s1.69-4.56,4.62-4.56H440c13.23,0,19.94,6.61,19.94,19.73v16.72C459.93,279.44,458.29,281.13,455.37,281.13Z"/><path class="cls-1" d="M440,359.93H423.28c-2.93,0-4.62-1.64-4.62-4.56s1.69-4.51,4.62-4.51h16.51c7.17,0,11.07-3.79,11.07-11.18v-16.2c0-2.92,1.64-4.61,4.51-4.61s4.56,1.69,4.56,4.61V340.2C459.93,353.32,453.22,359.93,440,359.93Z"/><path class="cls-1" d="M399.43,288.82l13,13c0-.33,0-.66,0-1a12,12,0,0,0-12-12.1C400.15,288.77,399.79,288.79,399.43,288.82Z"/><path class="cls-1" d="M388.52,300.87a12,12,0,0,0,12,11.95,10.44,10.44,0,0,0,1.59-.11l-13.47-13.47A12.51,12.51,0,0,0,388.52,300.87Z"/><path class="cls-1" d="M364.83,285.34v34.35c0,4.3,3,7.18,7.48,7.18h43.95L405.59,316.2a16.19,16.19,0,0,1-21.28-15.33,16.36,16.36,0,0,1,.82-5.13L368.41,279A6.84,6.84,0,0,0,364.83,285.34ZM416,305.4l18.79,18.79a7.31,7.31,0,0,0,1.4-4.5V285.34c0-4.31-2.93-7.23-7.39-7.23h-10.1c-1.69,0-2.66-.46-4-2.15L413.07,274a6.72,6.72,0,0,0-5.69-2.72H393.64a6.69,6.69,0,0,0-5.59,2.72l-1.54,1.89,9.39,9.39a16,16,0,0,1,4.61-.67A16.23,16.23,0,0,1,416,305.4Z"/><path class="cls-1" d="M399.43,288.82l13,13c0-.33,0-.66,0-1a12,12,0,0,0-12-12.1C400.15,288.77,399.79,288.79,399.43,288.82Z"/><path class="cls-1" d="M388.52,300.87a12,12,0,0,0,12,11.95,10.44,10.44,0,0,0,1.59-.11l-13.47-13.47A12.51,12.51,0,0,0,388.52,300.87Z"/><path class="cls-1" d="M399.43,288.82l13,13c0-.33,0-.66,0-1a12,12,0,0,0-12-12.1C400.15,288.77,399.79,288.79,399.43,288.82Z"/><path class="cls-1" d="M388.52,300.87a12,12,0,0,0,12,11.95,10.44,10.44,0,0,0,1.59-.11l-13.47-13.47A12.51,12.51,0,0,0,388.52,300.87Z"/><path class="cls-1" d="M344.63,281.13c-3,0-4.56-1.69-4.56-4.61V259.8c0-13,6.66-19.73,19.94-19.73h16.71c2.93,0,4.62,1.64,4.62,4.56s-1.69,4.51-4.62,4.51H360.21c-7,0-11.07,3.79-11.07,11.18v16.2C349.14,279.44,347.5,281.13,344.63,281.13Z"/><path class="cls-1" d="M376.72,359.93H360c-13.28,0-19.94-6.71-19.94-19.73V323.48c0-2.92,1.64-4.61,4.56-4.61s4.51,1.69,4.51,4.61v16.2c0,7.39,4.05,11.18,11.07,11.18h16.51c2.93,0,4.62,1.64,4.62,4.51S379.65,359.93,376.72,359.93Z"/><line class="cls-2" x1="308" y1="231" x2="300" y2="225"/><line class="cls-3" x1="281.04" y1="210.78" x2="17.48" y2="13.11"/><line class="cls-2" x1="8" y1="6"/><line class="cls-2" x1="800.01" y1="600" x2="792.01" y2="594"/><line class="cls-4" x1="770.76" y1="578.06" x2="513.63" y2="385.22"/><line class="cls-2" x1="503" y1="377.25" x2="495" y2="371.25"/><line class="cls-2" x1="800.01" x2="792.01" y2="6"/><line class="cls-4" x1="770.76" y1="21.94" x2="513.63" y2="214.78"/><line class="cls-2" x1="503" y1="222.75" x2="495" y2="228.75"/><line class="cls-2" x1="308" y1="369" x2="300" y2="375"/><line class="cls-3" x1="281.04" y1="389.22" x2="17.48" y2="586.89"/><line class="cls-2" x1="8" y1="594" y2="600"/><line class="cls-5" x1="435.12" y1="335.12" x2="364.53" y2="264.53"/></g></svg>